%TF.GenerationSoftware,KiCad,Pcbnew,(5.1.6-0)*%
%TF.CreationDate,2020-08-03T06:06:21-05:00*%
%TF.ProjectId,isa_fdc.kicad_DB37-v3_pcb,6973615f-6664-4632-9e6b-696361645f44,rev?*%
%TF.SameCoordinates,Original*%
%TF.FileFunction,Soldermask,Top*%
%TF.FilePolarity,Negative*%
%FSLAX46Y46*%
G04 Gerber Fmt 4.6, Leading zero omitted, Abs format (unit mm)*
G04 Created by KiCad (PCBNEW (5.1.6-0)) date 2020-08-03 06:06:21*
%MOMM*%
%LPD*%
G01*
G04 APERTURE LIST*
%ADD10C,1.908000*%
%ADD11C,4.508000*%
%ADD12C,2.108000*%
%ADD13R,2.108000X2.108000*%
%ADD14C,2.032000*%
%ADD15R,2.032000X2.032000*%
%ADD16O,1.908000X1.908000*%
%ADD17O,2.108000X2.108000*%
%ADD18C,1.905000*%
%ADD19R,1.905000X1.905000*%
%ADD20R,2.286000X8.128000*%
G04 APERTURE END LIST*
D10*
%TO.C,R3*%
X136440000Y-92220000D03*
G36*
G01*
X136913000Y-91400740D02*
X136913000Y-91400740D01*
G75*
G02*
X136563812Y-90097552I477000J826188D01*
G01*
X136563812Y-90097552D01*
G75*
G02*
X137867000Y-89748364I826188J-477000D01*
G01*
X137867000Y-89748364D01*
G75*
G02*
X138216188Y-91051552I-477000J-826188D01*
G01*
X138216188Y-91051552D01*
G75*
G02*
X136913000Y-91400740I-826188J477000D01*
G01*
G37*
%TD*%
D11*
%TO.C,P2*%
X197570000Y-58670000D03*
X197570000Y-122170000D03*
D12*
X198990000Y-113965000D03*
X198990000Y-111195000D03*
X198990000Y-108425000D03*
X198990000Y-105655000D03*
X198990000Y-102885000D03*
X198990000Y-100115000D03*
X198990000Y-97345000D03*
X198990000Y-94575000D03*
X198990000Y-91805000D03*
X198990000Y-89035000D03*
X198990000Y-86265000D03*
X198990000Y-83495000D03*
X198990000Y-80725000D03*
X198990000Y-77955000D03*
X198990000Y-75185000D03*
X198990000Y-72415000D03*
X198990000Y-69645000D03*
X198990000Y-66875000D03*
X196150000Y-115350000D03*
X196150000Y-112580000D03*
X196150000Y-109810000D03*
X196150000Y-107040000D03*
X196150000Y-104270000D03*
X196150000Y-101500000D03*
X196150000Y-98730000D03*
X196150000Y-95960000D03*
X196150000Y-93190000D03*
X196150000Y-90420000D03*
X196150000Y-87650000D03*
X196150000Y-84880000D03*
X196150000Y-82110000D03*
X196150000Y-79340000D03*
X196150000Y-76570000D03*
X196150000Y-73800000D03*
X196150000Y-71030000D03*
X196150000Y-68260000D03*
D13*
X196150000Y-65490000D03*
%TD*%
D14*
%TO.C,P3*%
X189010000Y-95870000D03*
X186470000Y-95870000D03*
X189010000Y-93330000D03*
X186470000Y-93330000D03*
X186470000Y-90790000D03*
X189010000Y-90790000D03*
X186470000Y-88250000D03*
X189010000Y-88250000D03*
X189010000Y-85710000D03*
X186470000Y-85710000D03*
X189010000Y-83170000D03*
X186470000Y-83170000D03*
X189010000Y-80630000D03*
X186470000Y-80630000D03*
X189010000Y-78090000D03*
X186470000Y-78090000D03*
X189010000Y-75550000D03*
X186470000Y-75550000D03*
X189010000Y-73010000D03*
X186470000Y-73010000D03*
X189010000Y-70470000D03*
X186470000Y-70470000D03*
X189010000Y-67930000D03*
X186470000Y-67930000D03*
X189010000Y-65390000D03*
X186470000Y-65390000D03*
X189010000Y-62850000D03*
X186470000Y-62850000D03*
X189010000Y-60310000D03*
X186470000Y-60310000D03*
X189010000Y-57770000D03*
X186470000Y-57770000D03*
X189010000Y-55230000D03*
D15*
X186470000Y-55230000D03*
%TD*%
D10*
%TO.C,R2*%
X130690000Y-105120000D03*
D16*
X130690000Y-107020000D03*
%TD*%
%TO.C,R1*%
G36*
G01*
X130501077Y-99778923D02*
X130501077Y-99778923D01*
G75*
G02*
X130501077Y-101128083I-674580J-674580D01*
G01*
X130501077Y-101128083D01*
G75*
G02*
X129151917Y-101128083I-674580J674580D01*
G01*
X129151917Y-101128083D01*
G75*
G02*
X129151917Y-99778923I674580J674580D01*
G01*
X129151917Y-99778923D01*
G75*
G02*
X130501077Y-99778923I674580J-674580D01*
G01*
G37*
D10*
X131170000Y-99110000D03*
%TD*%
D13*
%TO.C,U2*%
X136880000Y-106910000D03*
D17*
X152120000Y-99290000D03*
X139420000Y-106910000D03*
X149580000Y-99290000D03*
X141960000Y-106910000D03*
X147040000Y-99290000D03*
X144500000Y-106910000D03*
X144500000Y-99290000D03*
X147040000Y-106910000D03*
X141960000Y-99290000D03*
X149580000Y-106910000D03*
X139420000Y-99290000D03*
X152120000Y-106910000D03*
X136880000Y-99290000D03*
%TD*%
D18*
%TO.C,C2*%
X132790000Y-100680000D03*
X132790000Y-105760000D03*
%TD*%
D19*
%TO.C,SW1*%
X109220000Y-106680000D03*
D18*
X111760000Y-106680000D03*
X114300000Y-106680000D03*
X116840000Y-106680000D03*
X119380000Y-106680000D03*
X121920000Y-106680000D03*
X124460000Y-106680000D03*
X127000000Y-106680000D03*
X127000000Y-99060000D03*
X124460000Y-99060000D03*
X121920000Y-99060000D03*
X119380000Y-99060000D03*
X116840000Y-99060000D03*
X114300000Y-99060000D03*
X111760000Y-99060000D03*
X109220000Y-99060000D03*
%TD*%
D20*
%TO.C,BUS1*%
X177800000Y-130492500D03*
X175260000Y-130492500D03*
X172720000Y-130492500D03*
X170180000Y-130492500D03*
X167640000Y-130492500D03*
X165100000Y-130492500D03*
X162560000Y-130492500D03*
X160020000Y-130492500D03*
X154940000Y-130492500D03*
X152400000Y-130492500D03*
X149860000Y-130492500D03*
X147320000Y-130492500D03*
X144780000Y-130492500D03*
X142240000Y-130492500D03*
X139700000Y-130492500D03*
X137160000Y-130492500D03*
X134620000Y-130492500D03*
X132080000Y-130492500D03*
X129540000Y-130492500D03*
X127000000Y-130492500D03*
X124460000Y-130492500D03*
X121920000Y-130492500D03*
X119380000Y-130492500D03*
X116840000Y-130492500D03*
X114300000Y-130492500D03*
X111760000Y-130492500D03*
X109220000Y-130492500D03*
X106680000Y-130492500D03*
X104140000Y-130492500D03*
%TD*%
D18*
%TO.C,C11*%
X190890000Y-123800000D03*
D19*
X190890000Y-118720000D03*
%TD*%
%TO.C,C12*%
X119350000Y-62340000D03*
D18*
X124430000Y-62340000D03*
%TD*%
D19*
%TO.C,U5*%
X160020000Y-119380000D03*
D18*
X162560000Y-119380000D03*
X165100000Y-119380000D03*
X167640000Y-119380000D03*
X170180000Y-119380000D03*
X172720000Y-119380000D03*
X175260000Y-119380000D03*
X177800000Y-119380000D03*
X180340000Y-119380000D03*
X182880000Y-119380000D03*
X182880000Y-111760000D03*
X180340000Y-111760000D03*
X177800000Y-111760000D03*
X175260000Y-111760000D03*
X172720000Y-111760000D03*
X170180000Y-111760000D03*
X167640000Y-111760000D03*
X165100000Y-111760000D03*
X162560000Y-111760000D03*
X160020000Y-111760000D03*
%TD*%
D19*
%TO.C,U7*%
X109220000Y-119380000D03*
D18*
X111760000Y-119380000D03*
X114300000Y-119380000D03*
X116840000Y-119380000D03*
X119380000Y-119380000D03*
X121920000Y-119380000D03*
X124460000Y-119380000D03*
X127000000Y-119380000D03*
X127000000Y-111760000D03*
X124460000Y-111760000D03*
X121920000Y-111760000D03*
X119380000Y-111760000D03*
X116840000Y-111760000D03*
X114300000Y-111760000D03*
X111760000Y-111760000D03*
X109220000Y-111760000D03*
%TD*%
D19*
%TO.C,U6*%
X134620000Y-119380000D03*
D18*
X137160000Y-119380000D03*
X139700000Y-119380000D03*
X142240000Y-119380000D03*
X144780000Y-119380000D03*
X147320000Y-119380000D03*
X149860000Y-119380000D03*
X152400000Y-119380000D03*
X152400000Y-111760000D03*
X149860000Y-111760000D03*
X147320000Y-111760000D03*
X144780000Y-111760000D03*
X142240000Y-111760000D03*
X139700000Y-111760000D03*
X137160000Y-111760000D03*
X134620000Y-111760000D03*
%TD*%
D19*
%TO.C,SW2*%
X160020000Y-106680000D03*
D18*
X162560000Y-106680000D03*
X165100000Y-106680000D03*
X167640000Y-106680000D03*
X170180000Y-106680000D03*
X172720000Y-106680000D03*
X175260000Y-106680000D03*
X177800000Y-106680000D03*
X177800000Y-99060000D03*
X175260000Y-99060000D03*
X172720000Y-99060000D03*
X170180000Y-99060000D03*
X167640000Y-99060000D03*
X165100000Y-99060000D03*
X162560000Y-99060000D03*
X160020000Y-99060000D03*
%TD*%
%TO.C,C1*%
X105410000Y-100330000D03*
X105410000Y-105410000D03*
%TD*%
%TO.C,C7*%
X105410000Y-113030000D03*
X105410000Y-118110000D03*
%TD*%
%TO.C,C6*%
X130810000Y-113030000D03*
X130810000Y-118110000D03*
%TD*%
%TO.C,C5*%
X157470000Y-113020000D03*
X157470000Y-118100000D03*
%TD*%
%TO.C,C4*%
X137170000Y-83310000D03*
X137170000Y-88390000D03*
%TD*%
%TO.C,C16*%
X142240000Y-70485000D03*
X142240000Y-65405000D03*
%TD*%
%TO.C,C15*%
X147320000Y-70485000D03*
X147320000Y-65405000D03*
%TD*%
D19*
%TO.C,U4*%
X142240000Y-93980000D03*
D18*
X144780000Y-93980000D03*
X147320000Y-93980000D03*
X149860000Y-93980000D03*
X152400000Y-93980000D03*
X154940000Y-93980000D03*
X157480000Y-93980000D03*
X160020000Y-93980000D03*
X162560000Y-93980000D03*
X165100000Y-93980000D03*
X167640000Y-93980000D03*
X170180000Y-93980000D03*
X172720000Y-93980000D03*
X175260000Y-93980000D03*
X175260000Y-78740000D03*
X172720000Y-78740000D03*
X170180000Y-78740000D03*
X167640000Y-78740000D03*
X165100000Y-78740000D03*
X162560000Y-78740000D03*
X160020000Y-78740000D03*
X157480000Y-78740000D03*
X154940000Y-78740000D03*
X152400000Y-78740000D03*
X149860000Y-78740000D03*
X147320000Y-78740000D03*
X144780000Y-78740000D03*
X142240000Y-78740000D03*
%TD*%
%TO.C,C17*%
X137160000Y-65405000D03*
X137160000Y-70485000D03*
%TD*%
D19*
%TO.C,U1*%
X106680000Y-81280000D03*
D18*
X109220000Y-81280000D03*
X106680000Y-83820000D03*
X109220000Y-83820000D03*
X106680000Y-86360000D03*
X109220000Y-86360000D03*
X106680000Y-88900000D03*
X109220000Y-88900000D03*
X106680000Y-91440000D03*
X109220000Y-93980000D03*
X109220000Y-91440000D03*
X111760000Y-93980000D03*
X111760000Y-91440000D03*
X114300000Y-93980000D03*
X114300000Y-91440000D03*
X116840000Y-93980000D03*
X116840000Y-91440000D03*
X119380000Y-93980000D03*
X119380000Y-91440000D03*
X121920000Y-93980000D03*
X121920000Y-91440000D03*
X124460000Y-93980000D03*
X124460000Y-91440000D03*
X127000000Y-93980000D03*
X127000000Y-91440000D03*
X129540000Y-93980000D03*
X132080000Y-91440000D03*
X129540000Y-91440000D03*
X132080000Y-88900000D03*
X129540000Y-88900000D03*
X132080000Y-86360000D03*
X129540000Y-86360000D03*
X132080000Y-83820000D03*
X129540000Y-83820000D03*
X132080000Y-81280000D03*
X129540000Y-81280000D03*
X132080000Y-78740000D03*
X129540000Y-78740000D03*
X132080000Y-76200000D03*
X129540000Y-76200000D03*
X132080000Y-73660000D03*
X129540000Y-73660000D03*
X132080000Y-71120000D03*
X129540000Y-68580000D03*
X129540000Y-71120000D03*
X127000000Y-68580000D03*
X127000000Y-71120000D03*
X124460000Y-68580000D03*
X124460000Y-71120000D03*
X121920000Y-68580000D03*
X121920000Y-71120000D03*
X119380000Y-68580000D03*
X119380000Y-71120000D03*
X116840000Y-68580000D03*
X116840000Y-71120000D03*
X114300000Y-68580000D03*
X114300000Y-71120000D03*
X111760000Y-68580000D03*
X111760000Y-71120000D03*
X109220000Y-68580000D03*
X106680000Y-71120000D03*
X109220000Y-71120000D03*
X106680000Y-73660000D03*
X109220000Y-73660000D03*
X106680000Y-76200000D03*
X109220000Y-76200000D03*
X106680000Y-78740000D03*
X109220000Y-78740000D03*
%TD*%
D15*
%TO.C,P1*%
X106670000Y-56840000D03*
D14*
X106670000Y-54300000D03*
X109210000Y-56840000D03*
X109210000Y-54300000D03*
X111750000Y-56840000D03*
X111750000Y-54300000D03*
X114290000Y-56840000D03*
X114290000Y-54300000D03*
X116830000Y-56840000D03*
X116830000Y-54300000D03*
X119370000Y-56840000D03*
X119370000Y-54300000D03*
X121910000Y-56840000D03*
X121910000Y-54300000D03*
X124450000Y-56840000D03*
X124450000Y-54300000D03*
X126990000Y-56840000D03*
X126990000Y-54300000D03*
X129530000Y-56840000D03*
X129530000Y-54300000D03*
X132070000Y-56840000D03*
X132070000Y-54300000D03*
X134610000Y-56840000D03*
X134610000Y-54300000D03*
X137150000Y-56840000D03*
X137150000Y-54300000D03*
X139690000Y-54300000D03*
X139690000Y-56840000D03*
X142230000Y-54300000D03*
X142230000Y-56840000D03*
X144770000Y-56840000D03*
X144770000Y-54300000D03*
X147310000Y-56840000D03*
X147310000Y-54300000D03*
%TD*%
D19*
%TO.C,RR1*%
X157480000Y-109220000D03*
D18*
X160020000Y-109220000D03*
X162560000Y-109220000D03*
X165100000Y-109220000D03*
X167640000Y-109220000D03*
X170180000Y-109220000D03*
X172720000Y-109220000D03*
X175260000Y-109220000D03*
X177800000Y-109220000D03*
X180340000Y-109220000D03*
%TD*%
%TO.C,RR2*%
X144780000Y-62865000D03*
X142240000Y-62865000D03*
X139700000Y-62865000D03*
X137160000Y-62865000D03*
X134620000Y-62865000D03*
D19*
X132080000Y-62865000D03*
%TD*%
D18*
%TO.C,X1*%
X147220940Y-74295000D03*
X142339060Y-74295000D03*
%TD*%
M02*
