M48
; DRILL file {KiCad (5.1.6-0)} date Monday, August 03, 2020 at 06:06:24 AM
; FORMAT={-:-/ absolute / inch / decimal}
; #@! TF.CreationDate,2020-08-03T06:06:24-05:00
; #@! TF.GenerationSoftware,Kicad,Pcbnew,(5.1.6-0)
FMAT,2
INCH
T1C0.0250
T2C0.0276
T3C0.0315
T4C0.0320
T5C0.0394
T6C0.0400
T7C0.1260
%
G90
G05
T1
X3.9632Y-1.9616
X4.0071Y-3.3083
X4.0299Y-2.1618
X4.0343Y-1.965
X4.0354Y-2.2343
X4.0354Y-3.2004
X4.05Y-4.9
X4.0612Y-2.1965
X4.0862Y-2.0059
X4.0917Y-1.9075
X4.1061Y-2.1994
X4.1327Y-3.2358
X4.1405Y-2.1593
X4.15Y-4.55
X4.15Y-4.75
X4.15Y-4.8
X4.161Y-2.8492
X4.3031Y-4.5323
X4.35Y-4.6
X4.3559Y-4.9024
X4.3933Y-3.0
X4.4217Y-4.0122
X4.45Y-4.6
X4.4913Y-4.5335
X4.4961Y-3.9756
X4.5Y-3.4
X4.5362Y-4.9543
X4.5455Y-4.7844
X4.5543Y-4.1252
X4.5669Y-4.8839
X4.6Y-2.9
X4.6492Y-3.7402
X4.6496Y-4.9634
X4.65Y-3.95
X4.65Y-4.15
X4.65Y-4.5807
X4.6535Y-4.8193
X4.6622Y-4.8941
X4.7039Y-3.9634
X4.735Y-4.5807
X4.7429Y-4.9433
X4.7496Y-3.7378
X4.7837Y-2.9163
X4.7843Y-4.5787
X4.8Y-3.4125
X4.85Y-4.925
X4.8531Y-3.198
X4.8625Y-3.35
X4.8625Y-4.8375
X4.8736Y-3.9657
X4.8917Y-4.5126
X4.9Y-2.95
X4.9138Y-3.0465
X4.924Y-3.9555
X4.9512Y-3.0961
X4.974Y-4.485
X4.9886Y-4.1197
X5.0Y-2.0201
X5.0125Y-3.2
X5.075Y-2.6
X5.0839Y-4.4224
X5.0958Y-2.0027
X5.0996Y-3.8886
X5.1082Y-2.3668
X5.15Y-4.525
X5.175Y-4.725
X5.1752Y-4.3323
X5.225Y-4.725
X5.2316Y-2.5434
X5.275Y-3.65
X5.2906Y-4.3189
X5.2965Y-3.9504
X5.3124Y-4.4624
X5.3291Y-3.863
X5.3531Y-4.0
X5.389Y-2.6976
X5.4064Y-4.5625
X5.4104Y-4.7874
X5.415Y-4.3311
X5.4557Y-2.525
X5.498Y-2.7165
X5.5327Y-2.7571
X5.5327Y-2.8874
X5.5382Y-2.5898
X5.5453Y-3.3142
X5.5602Y-4.3118
X5.575Y-3.25
X5.5772Y-3.1886
X5.6Y-3.3
X5.6461Y-4.9429
X5.6462Y-2.0479
X5.6484Y-3.161
X5.65Y-3.25
X5.6866Y-4.1409
X5.6965Y-4.9264
X5.7102Y-2.6299
X5.7167Y-2.0479
X5.7583Y-2.4713
X5.8Y-4.475
X5.8469Y-2.5232
X5.85Y-4.35
X5.8736Y-4.8752
X5.875Y-2.75
X5.8827Y-4.8157
X5.8921Y-4.1264
X5.898Y-2.3124
X5.9043Y-4.3126
X5.948Y-2.3624
X5.9996Y-2.3098
X6.0Y-3.375
X6.0Y-4.525
X6.0Y-4.925
X6.0224Y-2.4819
X6.0343Y-1.9055
X6.0375Y-2.4037
X6.05Y-2.85
X6.05Y-3.05
X6.05Y-3.375
X6.0512Y-4.1799
X6.0811Y-4.5638
X6.0835Y-4.1476
X6.0945Y-4.6374
X6.0988Y-2.2567
X6.0988Y-4.3083
X6.1Y-3.375
X6.135Y-4.2618
X6.1375Y-4.9375
X6.1413Y-4.6382
X6.152Y-2.7988
X6.1661Y-4.0783
X6.175Y-4.7875
X6.1937Y-3.9004
X6.2016Y-4.113
X6.2496Y-4.0839
X6.25Y-4.775
X6.275Y-4.6
X6.3Y-4.075
X6.35Y-4.55
X6.352Y-4.0264
X6.45Y-3.425
X6.452Y-3.6276
X6.5047Y-4.0827
X6.55Y-3.425
X6.6Y-4.6
X6.675Y-3.325
X6.8Y-3.25
X6.8848Y-2.2093
X6.9Y-4.6
X7.0425Y-2.9079
X7.05Y-3.95
X7.0772Y-2.8055
X7.1Y-4.5
X7.2199Y-2.3297
X7.2224Y-2.4272
X7.2295Y-2.2268
X7.2543Y-3.2217
X7.276Y-3.6252
X7.3179Y-4.0372
X7.4465Y-4.5016
X7.4626Y-4.3579
X7.5Y-4.95
X7.5004Y-4.4035
X7.5024Y-4.7638
X7.5134Y-4.5417
X7.5268Y-2.3181
X7.5516Y-2.4228
X7.5539Y-4.9268
X7.6146Y-2.624
X7.6146Y-2.7154
X7.648Y-2.8669
X7.6913Y-2.0276
X7.7669Y-1.9539
X7.8504Y-1.9551
X7.9075Y-4.3228
X7.9398Y-1.9559
T2
X5.1113Y-3.9549
X5.1642Y-3.902
X5.1453Y-4.1386
X5.1453Y-4.2134
X5.3717Y-3.6307
X5.4091Y-3.5659
T3
X5.389Y-3.9091
X5.389Y-4.2091
X5.489Y-3.9091
X5.489Y-4.2091
X5.589Y-3.9091
X5.589Y-4.2091
X5.689Y-3.9091
X5.689Y-4.2091
X5.789Y-3.9091
X5.789Y-4.2091
X5.889Y-3.9091
X5.889Y-4.2091
X5.989Y-3.9091
X5.989Y-4.2091
T4
X5.6039Y-2.925
X5.7961Y-2.925
X6.1996Y-4.4496
X6.1996Y-4.6496
X5.228Y-3.9638
X5.228Y-4.1638
X7.5154Y-4.674
X7.5154Y-4.874
X4.15Y-3.95
X4.15Y-4.15
X5.4004Y-3.2799
X5.4004Y-3.4799
X6.3Y-4.4
X6.3Y-4.7
X6.4Y-4.4
X6.4Y-4.7
X6.5Y-4.4
X6.5Y-4.7
X6.6Y-4.4
X6.6Y-4.7
X6.7Y-4.4
X6.7Y-4.7
X6.8Y-4.4
X6.8Y-4.7
X6.9Y-4.4
X6.9Y-4.7
X7.0Y-4.4
X7.0Y-4.7
X7.1Y-4.4
X7.1Y-4.7
X7.2Y-4.4
X7.2Y-4.7
X5.2Y-2.475
X5.3Y-2.475
X5.4Y-2.475
X5.5Y-2.475
X5.6Y-2.475
X5.7Y-2.475
X4.15Y-4.45
X4.15Y-4.65
X6.3Y-3.9
X6.3Y-4.2
X6.4Y-3.9
X6.4Y-4.2
X6.5Y-3.9
X6.5Y-4.2
X6.6Y-3.9
X6.6Y-4.2
X6.7Y-3.9
X6.7Y-4.2
X6.8Y-3.9
X6.8Y-4.2
X6.9Y-3.9
X6.9Y-4.2
X7.0Y-3.9
X7.0Y-4.2
X5.6Y-2.575
X5.6Y-2.775
X4.2Y-2.8
X4.2Y-2.9
X4.2Y-3.0
X4.2Y-3.1
X4.2Y-3.2
X4.2Y-3.3
X4.2Y-3.4
X4.2Y-3.5
X4.2Y-3.6
X4.3Y-2.7
X4.3Y-2.8
X4.3Y-2.9
X4.3Y-3.0
X4.3Y-3.1
X4.3Y-3.2
X4.3Y-3.3
X4.3Y-3.4
X4.3Y-3.5
X4.3Y-3.6
X4.3Y-3.7
X4.4Y-2.7
X4.4Y-2.8
X4.4Y-3.6
X4.4Y-3.7
X4.5Y-2.7
X4.5Y-2.8
X4.5Y-3.6
X4.5Y-3.7
X4.6Y-2.7
X4.6Y-2.8
X4.6Y-3.6
X4.6Y-3.7
X4.7Y-2.7
X4.7Y-2.8
X4.7Y-3.6
X4.7Y-3.7
X4.8Y-2.7
X4.8Y-2.8
X4.8Y-3.6
X4.8Y-3.7
X4.9Y-2.7
X4.9Y-2.8
X4.9Y-3.6
X4.9Y-3.7
X5.0Y-2.7
X5.0Y-2.8
X5.0Y-3.6
X5.0Y-3.7
X5.1Y-2.7
X5.1Y-2.8
X5.1Y-2.9
X5.1Y-3.0
X5.1Y-3.1
X5.1Y-3.2
X5.1Y-3.3
X5.1Y-3.4
X5.1Y-3.5
X5.1Y-3.6
X5.1Y-3.7
X5.2Y-2.8
X5.2Y-2.9
X5.2Y-3.0
X5.2Y-3.1
X5.2Y-3.2
X5.2Y-3.3
X5.2Y-3.4
X5.2Y-3.5
X5.2Y-3.6
X5.8Y-2.575
X5.8Y-2.775
X4.6988Y-2.4543
X4.8988Y-2.4543
X5.3Y-4.4
X5.3Y-4.7
X5.4Y-4.4
X5.4Y-4.7
X5.5Y-4.4
X5.5Y-4.7
X5.6Y-4.4
X5.6Y-4.7
X5.7Y-4.4
X5.7Y-4.7
X5.8Y-4.4
X5.8Y-4.7
X5.9Y-4.4
X5.9Y-4.7
X6.0Y-4.4
X6.0Y-4.7
X5.6Y-3.1
X5.6Y-3.7
X5.7Y-3.1
X5.7Y-3.7
X5.8Y-3.1
X5.8Y-3.7
X5.9Y-3.1
X5.9Y-3.7
X6.0Y-3.1
X6.0Y-3.7
X6.1Y-3.1
X6.1Y-3.7
X6.2Y-3.1
X6.2Y-3.7
X6.3Y-3.1
X6.3Y-3.7
X6.4Y-3.1
X6.4Y-3.7
X6.5Y-3.1
X6.5Y-3.7
X6.6Y-3.1
X6.6Y-3.7
X6.7Y-3.1
X6.7Y-3.7
X6.8Y-3.1
X6.8Y-3.7
X6.9Y-3.1
X6.9Y-3.7
X4.3Y-3.9
X4.3Y-4.2
X4.4Y-3.9
X4.4Y-4.2
X4.5Y-3.9
X4.5Y-4.2
X4.6Y-3.9
X4.6Y-4.2
X4.7Y-3.9
X4.7Y-4.2
X4.8Y-3.9
X4.8Y-4.2
X4.9Y-3.9
X4.9Y-4.2
X5.0Y-3.9
X5.0Y-4.2
X4.3Y-4.4
X4.3Y-4.7
X4.4Y-4.4
X4.4Y-4.7
X4.5Y-4.4
X4.5Y-4.7
X4.6Y-4.4
X4.6Y-4.7
X4.7Y-4.4
X4.7Y-4.7
X4.8Y-4.4
X4.8Y-4.7
X4.9Y-4.4
X4.9Y-4.7
X5.0Y-4.4
X5.0Y-4.7
X6.2Y-4.3
X6.3Y-4.3
X6.4Y-4.3
X6.5Y-4.3
X6.6Y-4.3
X6.7Y-4.3
X6.8Y-4.3
X6.9Y-4.3
X7.0Y-4.3
X7.1Y-4.3
X5.4Y-2.575
X5.4Y-2.775
X5.15Y-4.45
X5.15Y-4.65
T5
X7.7224Y-2.5783
X7.7224Y-2.6874
X7.7224Y-2.7965
X7.7224Y-2.9055
X7.7224Y-3.0146
X7.7224Y-3.1236
X7.7224Y-3.2327
X7.7224Y-3.3417
X7.7224Y-3.4508
X7.7224Y-3.5598
X7.7224Y-3.6689
X7.7224Y-3.778
X7.7224Y-3.887
X7.7224Y-3.9961
X7.7224Y-4.1051
X7.7224Y-4.2142
X7.7224Y-4.3232
X7.7224Y-4.4323
X7.7224Y-4.5413
X7.8343Y-2.6329
X7.8343Y-2.7419
X7.8343Y-2.851
X7.8343Y-2.96
X7.8343Y-3.0691
X7.8343Y-3.1781
X7.8343Y-3.2872
X7.8343Y-3.3963
X7.8343Y-3.5053
X7.8343Y-3.6144
X7.8343Y-3.7234
X7.8343Y-3.8325
X7.8343Y-3.9415
X7.8343Y-4.0506
X7.8343Y-4.1596
X7.8343Y-4.2687
X7.8343Y-4.3778
X7.8343Y-4.4868
T6
X7.3413Y-2.1744
X7.3413Y-2.2744
X7.3413Y-2.3744
X7.3413Y-2.4744
X7.3413Y-2.5744
X7.3413Y-2.6744
X7.3413Y-2.7744
X7.3413Y-2.8744
X7.3413Y-2.9744
X7.3413Y-3.0744
X7.3413Y-3.1744
X7.3413Y-3.2744
X7.3413Y-3.3744
X7.3413Y-3.4744
X7.3413Y-3.5744
X7.3413Y-3.6744
X7.3413Y-3.7744
X7.4413Y-2.1744
X7.4413Y-2.2744
X7.4413Y-2.3744
X7.4413Y-2.4744
X7.4413Y-2.5744
X7.4413Y-2.6744
X7.4413Y-2.7744
X7.4413Y-2.8744
X7.4413Y-2.9744
X7.4413Y-3.0744
X7.4413Y-3.1744
X7.4413Y-3.2744
X7.4413Y-3.3744
X7.4413Y-3.4744
X7.4413Y-3.5744
X7.4413Y-3.6744
X7.4413Y-3.7744
X4.1996Y-2.1378
X4.1996Y-2.2378
X4.2996Y-2.1378
X4.2996Y-2.2378
X4.3996Y-2.1378
X4.3996Y-2.2378
X4.4996Y-2.1378
X4.4996Y-2.2378
X4.5996Y-2.1378
X4.5996Y-2.2378
X4.6996Y-2.1378
X4.6996Y-2.2378
X4.7996Y-2.1378
X4.7996Y-2.2378
X4.8996Y-2.1378
X4.8996Y-2.2378
X4.9996Y-2.1378
X4.9996Y-2.2378
X5.0996Y-2.1378
X5.0996Y-2.2378
X5.1996Y-2.1378
X5.1996Y-2.2378
X5.2996Y-2.1378
X5.2996Y-2.2378
X5.3996Y-2.1378
X5.3996Y-2.2378
X5.4996Y-2.1378
X5.4996Y-2.2378
X5.5996Y-2.1378
X5.5996Y-2.2378
X5.6996Y-2.1378
X5.6996Y-2.2378
X5.7996Y-2.1378
X5.7996Y-2.2378
T7
X7.7783Y-2.3098
X7.7783Y-4.8098
T0
M30
