%TF.GenerationSoftware,KiCad,Pcbnew,(5.1.6-0)*%
%TF.CreationDate,2020-08-02T10:50:01-05:00*%
%TF.ProjectId,isa_fdc.kicad_DB37_pcb,6973615f-6664-4632-9e6b-696361645f44,rev?*%
%TF.SameCoordinates,Original*%
%TF.FileFunction,Soldermask,Bot*%
%TF.FilePolarity,Negative*%
%FSLAX46Y46*%
G04 Gerber Fmt 4.6, Leading zero omitted, Abs format (unit mm)*
G04 Created by KiCad (PCBNEW (5.1.6-0)) date 2020-08-02 10:50:01*
%MOMM*%
%LPD*%
G01*
G04 APERTURE LIST*
%ADD10C,2.108000*%
%ADD11R,2.108000X2.108000*%
%ADD12C,2.032000*%
%ADD13R,2.032000X2.032000*%
%ADD14C,1.908000*%
%ADD15O,1.908000X1.908000*%
%ADD16O,2.108000X2.108000*%
%ADD17C,1.905000*%
%ADD18R,1.905000X1.905000*%
%ADD19R,2.286000X8.128000*%
%ADD20O,2.032000X2.032000*%
G04 APERTURE END LIST*
D10*
%TO.C,P2*%
X198970000Y-108975000D03*
X198970000Y-106205000D03*
X198970000Y-103435000D03*
X198970000Y-100665000D03*
X198970000Y-97895000D03*
X198970000Y-95125000D03*
X198970000Y-92355000D03*
X198970000Y-89585000D03*
X198970000Y-86815000D03*
X198970000Y-84045000D03*
X198970000Y-81275000D03*
X198970000Y-78505000D03*
X198970000Y-75735000D03*
X198970000Y-72965000D03*
X198970000Y-70195000D03*
X198970000Y-67425000D03*
X198970000Y-64655000D03*
X198970000Y-61885000D03*
X196430000Y-110360000D03*
X196430000Y-107590000D03*
X196430000Y-104820000D03*
X196430000Y-102050000D03*
X196430000Y-99280000D03*
X196430000Y-96510000D03*
X196430000Y-93740000D03*
X196430000Y-90970000D03*
X196430000Y-88200000D03*
X196430000Y-85430000D03*
X196430000Y-82660000D03*
X196430000Y-79890000D03*
X196430000Y-77120000D03*
X196430000Y-74350000D03*
X196430000Y-71580000D03*
X196430000Y-68810000D03*
X196430000Y-66040000D03*
X196430000Y-63270000D03*
D11*
X196430000Y-60500000D03*
%TD*%
D12*
%TO.C,P3*%
X189010000Y-95870000D03*
X186470000Y-95870000D03*
X189010000Y-93330000D03*
X186470000Y-93330000D03*
X186470000Y-90790000D03*
X189010000Y-90790000D03*
X186470000Y-88250000D03*
X189010000Y-88250000D03*
X189010000Y-85710000D03*
X186470000Y-85710000D03*
X189010000Y-83170000D03*
X186470000Y-83170000D03*
X189010000Y-80630000D03*
X186470000Y-80630000D03*
X189010000Y-78090000D03*
X186470000Y-78090000D03*
X189010000Y-75550000D03*
X186470000Y-75550000D03*
X189010000Y-73010000D03*
X186470000Y-73010000D03*
X189010000Y-70470000D03*
X186470000Y-70470000D03*
X189010000Y-67930000D03*
X186470000Y-67930000D03*
X189010000Y-65390000D03*
X186470000Y-65390000D03*
X189010000Y-62850000D03*
X186470000Y-62850000D03*
X189010000Y-60310000D03*
X186470000Y-60310000D03*
X189010000Y-57770000D03*
X186470000Y-57770000D03*
X189010000Y-55230000D03*
D13*
X186470000Y-55230000D03*
%TD*%
D14*
%TO.C,R2*%
X130690000Y-105120000D03*
D15*
X130690000Y-107020000D03*
%TD*%
%TO.C,R1*%
G36*
G01*
X130501077Y-99778923D02*
X130501077Y-99778923D01*
G75*
G02*
X130501077Y-101128083I-674580J-674580D01*
G01*
X130501077Y-101128083D01*
G75*
G02*
X129151917Y-101128083I-674580J674580D01*
G01*
X129151917Y-101128083D01*
G75*
G02*
X129151917Y-99778923I674580J674580D01*
G01*
X129151917Y-99778923D01*
G75*
G02*
X130501077Y-99778923I674580J-674580D01*
G01*
G37*
D14*
X131170000Y-99110000D03*
%TD*%
D11*
%TO.C,U2*%
X136880000Y-106910000D03*
D16*
X152120000Y-99290000D03*
X139420000Y-106910000D03*
X149580000Y-99290000D03*
X141960000Y-106910000D03*
X147040000Y-99290000D03*
X144500000Y-106910000D03*
X144500000Y-99290000D03*
X147040000Y-106910000D03*
X141960000Y-99290000D03*
X149580000Y-106910000D03*
X139420000Y-99290000D03*
X152120000Y-106910000D03*
X136880000Y-99290000D03*
%TD*%
D17*
%TO.C,C2*%
X132790000Y-100680000D03*
X132790000Y-105760000D03*
%TD*%
D18*
%TO.C,SW1*%
X109220000Y-106680000D03*
D17*
X111760000Y-106680000D03*
X114300000Y-106680000D03*
X116840000Y-106680000D03*
X119380000Y-106680000D03*
X121920000Y-106680000D03*
X124460000Y-106680000D03*
X127000000Y-106680000D03*
X127000000Y-99060000D03*
X124460000Y-99060000D03*
X121920000Y-99060000D03*
X119380000Y-99060000D03*
X116840000Y-99060000D03*
X114300000Y-99060000D03*
X111760000Y-99060000D03*
X109220000Y-99060000D03*
%TD*%
D19*
%TO.C,BUS1*%
X180340000Y-130492500D03*
X177800000Y-130492500D03*
X175260000Y-130492500D03*
X167640000Y-130492500D03*
X165100000Y-130492500D03*
X160020000Y-130492500D03*
X157480000Y-130492500D03*
X154940000Y-130492500D03*
X152400000Y-130492500D03*
X149860000Y-130492500D03*
X147320000Y-130492500D03*
X129540000Y-130492500D03*
X127000000Y-130492500D03*
X124460000Y-130492500D03*
X121920000Y-130492500D03*
X119380000Y-130492500D03*
X116840000Y-130492500D03*
X114300000Y-130492500D03*
X109220000Y-130492500D03*
X104140000Y-130492500D03*
X144780000Y-130492500D03*
X142240000Y-130492500D03*
%TD*%
D12*
%TO.C,JP2*%
X179670000Y-57760000D03*
D20*
X177130000Y-57760000D03*
%TD*%
D18*
%TO.C,C11*%
X193040000Y-119380000D03*
D17*
X193040000Y-114300000D03*
%TD*%
D18*
%TO.C,C12*%
X119380000Y-62865000D03*
D17*
X124460000Y-62865000D03*
%TD*%
D18*
%TO.C,U5*%
X160020000Y-119380000D03*
D17*
X162560000Y-119380000D03*
X165100000Y-119380000D03*
X167640000Y-119380000D03*
X170180000Y-119380000D03*
X172720000Y-119380000D03*
X175260000Y-119380000D03*
X177800000Y-119380000D03*
X180340000Y-119380000D03*
X182880000Y-119380000D03*
X182880000Y-111760000D03*
X180340000Y-111760000D03*
X177800000Y-111760000D03*
X175260000Y-111760000D03*
X172720000Y-111760000D03*
X170180000Y-111760000D03*
X167640000Y-111760000D03*
X165100000Y-111760000D03*
X162560000Y-111760000D03*
X160020000Y-111760000D03*
%TD*%
D18*
%TO.C,U7*%
X109220000Y-119380000D03*
D17*
X111760000Y-119380000D03*
X114300000Y-119380000D03*
X116840000Y-119380000D03*
X119380000Y-119380000D03*
X121920000Y-119380000D03*
X124460000Y-119380000D03*
X127000000Y-119380000D03*
X127000000Y-111760000D03*
X124460000Y-111760000D03*
X121920000Y-111760000D03*
X119380000Y-111760000D03*
X116840000Y-111760000D03*
X114300000Y-111760000D03*
X111760000Y-111760000D03*
X109220000Y-111760000D03*
%TD*%
D18*
%TO.C,U6*%
X134620000Y-119380000D03*
D17*
X137160000Y-119380000D03*
X139700000Y-119380000D03*
X142240000Y-119380000D03*
X144780000Y-119380000D03*
X147320000Y-119380000D03*
X149860000Y-119380000D03*
X152400000Y-119380000D03*
X152400000Y-111760000D03*
X149860000Y-111760000D03*
X147320000Y-111760000D03*
X144780000Y-111760000D03*
X142240000Y-111760000D03*
X139700000Y-111760000D03*
X137160000Y-111760000D03*
X134620000Y-111760000D03*
%TD*%
D18*
%TO.C,SW2*%
X160020000Y-106680000D03*
D17*
X162560000Y-106680000D03*
X165100000Y-106680000D03*
X167640000Y-106680000D03*
X170180000Y-106680000D03*
X172720000Y-106680000D03*
X175260000Y-106680000D03*
X177800000Y-106680000D03*
X177800000Y-99060000D03*
X175260000Y-99060000D03*
X172720000Y-99060000D03*
X170180000Y-99060000D03*
X167640000Y-99060000D03*
X165100000Y-99060000D03*
X162560000Y-99060000D03*
X160020000Y-99060000D03*
%TD*%
%TO.C,C1*%
X105410000Y-100330000D03*
X105410000Y-105410000D03*
%TD*%
%TO.C,C7*%
X105410000Y-113030000D03*
X105410000Y-118110000D03*
%TD*%
%TO.C,C6*%
X130810000Y-113030000D03*
X130810000Y-118110000D03*
%TD*%
%TO.C,C5*%
X157470000Y-113020000D03*
X157470000Y-118100000D03*
%TD*%
%TO.C,C4*%
X137170000Y-83310000D03*
X137170000Y-88390000D03*
%TD*%
%TO.C,C16*%
X142240000Y-70485000D03*
X142240000Y-65405000D03*
%TD*%
%TO.C,C15*%
X147320000Y-70485000D03*
X147320000Y-65405000D03*
%TD*%
D18*
%TO.C,U4*%
X142240000Y-93980000D03*
D17*
X144780000Y-93980000D03*
X147320000Y-93980000D03*
X149860000Y-93980000D03*
X152400000Y-93980000D03*
X154940000Y-93980000D03*
X157480000Y-93980000D03*
X160020000Y-93980000D03*
X162560000Y-93980000D03*
X165100000Y-93980000D03*
X167640000Y-93980000D03*
X170180000Y-93980000D03*
X172720000Y-93980000D03*
X175260000Y-93980000D03*
X175260000Y-78740000D03*
X172720000Y-78740000D03*
X170180000Y-78740000D03*
X167640000Y-78740000D03*
X165100000Y-78740000D03*
X162560000Y-78740000D03*
X160020000Y-78740000D03*
X157480000Y-78740000D03*
X154940000Y-78740000D03*
X152400000Y-78740000D03*
X149860000Y-78740000D03*
X147320000Y-78740000D03*
X144780000Y-78740000D03*
X142240000Y-78740000D03*
%TD*%
%TO.C,C17*%
X137160000Y-65405000D03*
X137160000Y-70485000D03*
%TD*%
D18*
%TO.C,U1*%
X106680000Y-81280000D03*
D17*
X109220000Y-81280000D03*
X106680000Y-83820000D03*
X109220000Y-83820000D03*
X106680000Y-86360000D03*
X109220000Y-86360000D03*
X106680000Y-88900000D03*
X109220000Y-88900000D03*
X106680000Y-91440000D03*
X109220000Y-93980000D03*
X109220000Y-91440000D03*
X111760000Y-93980000D03*
X111760000Y-91440000D03*
X114300000Y-93980000D03*
X114300000Y-91440000D03*
X116840000Y-93980000D03*
X116840000Y-91440000D03*
X119380000Y-93980000D03*
X119380000Y-91440000D03*
X121920000Y-93980000D03*
X121920000Y-91440000D03*
X124460000Y-93980000D03*
X124460000Y-91440000D03*
X127000000Y-93980000D03*
X127000000Y-91440000D03*
X129540000Y-93980000D03*
X132080000Y-91440000D03*
X129540000Y-91440000D03*
X132080000Y-88900000D03*
X129540000Y-88900000D03*
X132080000Y-86360000D03*
X129540000Y-86360000D03*
X132080000Y-83820000D03*
X129540000Y-83820000D03*
X132080000Y-81280000D03*
X129540000Y-81280000D03*
X132080000Y-78740000D03*
X129540000Y-78740000D03*
X132080000Y-76200000D03*
X129540000Y-76200000D03*
X132080000Y-73660000D03*
X129540000Y-73660000D03*
X132080000Y-71120000D03*
X129540000Y-68580000D03*
X129540000Y-71120000D03*
X127000000Y-68580000D03*
X127000000Y-71120000D03*
X124460000Y-68580000D03*
X124460000Y-71120000D03*
X121920000Y-68580000D03*
X121920000Y-71120000D03*
X119380000Y-68580000D03*
X119380000Y-71120000D03*
X116840000Y-68580000D03*
X116840000Y-71120000D03*
X114300000Y-68580000D03*
X114300000Y-71120000D03*
X111760000Y-68580000D03*
X111760000Y-71120000D03*
X109220000Y-68580000D03*
X106680000Y-71120000D03*
X109220000Y-71120000D03*
X106680000Y-73660000D03*
X109220000Y-73660000D03*
X106680000Y-76200000D03*
X109220000Y-76200000D03*
X106680000Y-78740000D03*
X109220000Y-78740000D03*
%TD*%
D20*
%TO.C,JP1*%
X106680000Y-62865000D03*
D12*
X109220000Y-62865000D03*
%TD*%
D13*
%TO.C,P1*%
X106680000Y-57785000D03*
D12*
X106680000Y-55245000D03*
X109220000Y-57785000D03*
X109220000Y-55245000D03*
X111760000Y-57785000D03*
X111760000Y-55245000D03*
X114300000Y-57785000D03*
X114300000Y-55245000D03*
X116840000Y-57785000D03*
X116840000Y-55245000D03*
X119380000Y-57785000D03*
X119380000Y-55245000D03*
X121920000Y-57785000D03*
X121920000Y-55245000D03*
X124460000Y-57785000D03*
X124460000Y-55245000D03*
X127000000Y-57785000D03*
X127000000Y-55245000D03*
X129540000Y-57785000D03*
X129540000Y-55245000D03*
X132080000Y-57785000D03*
X132080000Y-55245000D03*
X134620000Y-57785000D03*
X134620000Y-55245000D03*
X137160000Y-57785000D03*
X137160000Y-55245000D03*
X139700000Y-55245000D03*
X139700000Y-57785000D03*
X142240000Y-55245000D03*
X142240000Y-57785000D03*
X144780000Y-57785000D03*
X144780000Y-55245000D03*
X147320000Y-57785000D03*
X147320000Y-55245000D03*
%TD*%
D18*
%TO.C,RR1*%
X157480000Y-109220000D03*
D17*
X160020000Y-109220000D03*
X162560000Y-109220000D03*
X165100000Y-109220000D03*
X167640000Y-109220000D03*
X170180000Y-109220000D03*
X172720000Y-109220000D03*
X175260000Y-109220000D03*
X177800000Y-109220000D03*
X180340000Y-109220000D03*
%TD*%
%TO.C,RR2*%
X144780000Y-62865000D03*
X142240000Y-62865000D03*
X139700000Y-62865000D03*
X137160000Y-62865000D03*
X134620000Y-62865000D03*
D18*
X132080000Y-62865000D03*
%TD*%
D17*
%TO.C,X1*%
X147220940Y-74295000D03*
X142339060Y-74295000D03*
%TD*%
M02*
