%TF.GenerationSoftware,KiCad,Pcbnew,(5.1.6-0)*%
%TF.CreationDate,2020-08-01T06:16:14-05:00*%
%TF.ProjectId,isa_fdc,6973615f-6664-4632-9e6b-696361645f70,rev?*%
%TF.SameCoordinates,Original*%
%TF.FileFunction,Soldermask,Bot*%
%TF.FilePolarity,Negative*%
%FSLAX46Y46*%
G04 Gerber Fmt 4.6, Leading zero omitted, Abs format (unit mm)*
G04 Created by KiCad (PCBNEW (5.1.6-0)) date 2020-08-01 06:16:14*
%MOMM*%
%LPD*%
G01*
G04 APERTURE LIST*
%ADD10C,1.908000*%
%ADD11O,1.908000X1.908000*%
%ADD12R,2.108000X2.108000*%
%ADD13O,2.108000X2.108000*%
%ADD14C,1.905000*%
%ADD15R,1.905000X1.905000*%
%ADD16R,2.286000X8.128000*%
%ADD17C,2.032000*%
%ADD18O,2.032000X2.032000*%
%ADD19R,2.032000X2.032000*%
%ADD20C,4.572000*%
%ADD21C,4.556760*%
G04 APERTURE END LIST*
D10*
%TO.C,R2*%
X130690000Y-105120000D03*
D11*
X130690000Y-107020000D03*
%TD*%
%TO.C,R1*%
G36*
G01*
X130501077Y-99778923D02*
X130501077Y-99778923D01*
G75*
G02*
X130501077Y-101128083I-674580J-674580D01*
G01*
X130501077Y-101128083D01*
G75*
G02*
X129151917Y-101128083I-674580J674580D01*
G01*
X129151917Y-101128083D01*
G75*
G02*
X129151917Y-99778923I674580J674580D01*
G01*
X129151917Y-99778923D01*
G75*
G02*
X130501077Y-99778923I674580J-674580D01*
G01*
G37*
D10*
X131170000Y-99110000D03*
%TD*%
D12*
%TO.C,U2*%
X136880000Y-106910000D03*
D13*
X152120000Y-99290000D03*
X139420000Y-106910000D03*
X149580000Y-99290000D03*
X141960000Y-106910000D03*
X147040000Y-99290000D03*
X144500000Y-106910000D03*
X144500000Y-99290000D03*
X147040000Y-106910000D03*
X141960000Y-99290000D03*
X149580000Y-106910000D03*
X139420000Y-99290000D03*
X152120000Y-106910000D03*
X136880000Y-99290000D03*
%TD*%
D14*
%TO.C,C2*%
X132790000Y-100680000D03*
X132790000Y-105760000D03*
%TD*%
D15*
%TO.C,SW1*%
X109220000Y-106680000D03*
D14*
X111760000Y-106680000D03*
X114300000Y-106680000D03*
X116840000Y-106680000D03*
X119380000Y-106680000D03*
X121920000Y-106680000D03*
X124460000Y-106680000D03*
X127000000Y-106680000D03*
X127000000Y-99060000D03*
X124460000Y-99060000D03*
X121920000Y-99060000D03*
X119380000Y-99060000D03*
X116840000Y-99060000D03*
X114300000Y-99060000D03*
X111760000Y-99060000D03*
X109220000Y-99060000D03*
%TD*%
D16*
%TO.C,BUS1*%
X180340000Y-130492500D03*
X177800000Y-130492500D03*
X175260000Y-130492500D03*
X167640000Y-130492500D03*
X165100000Y-130492500D03*
X160020000Y-130492500D03*
X157480000Y-130492500D03*
X154940000Y-130492500D03*
X152400000Y-130492500D03*
X149860000Y-130492500D03*
X147320000Y-130492500D03*
X129540000Y-130492500D03*
X127000000Y-130492500D03*
X124460000Y-130492500D03*
X121920000Y-130492500D03*
X119380000Y-130492500D03*
X116840000Y-130492500D03*
X114300000Y-130492500D03*
X109220000Y-130492500D03*
X104140000Y-130492500D03*
X144780000Y-130492500D03*
X142240000Y-130492500D03*
%TD*%
D17*
%TO.C,JP2*%
X161800000Y-62980000D03*
D18*
X159260000Y-62980000D03*
%TD*%
D19*
%TO.C,P3*%
X158380000Y-57795000D03*
D17*
X158380000Y-55255000D03*
X160920000Y-57795000D03*
X160920000Y-55255000D03*
X163460000Y-57795000D03*
X163460000Y-55255000D03*
X166000000Y-57795000D03*
X166000000Y-55255000D03*
X168540000Y-57795000D03*
X168540000Y-55255000D03*
X171080000Y-57795000D03*
X171080000Y-55255000D03*
X173620000Y-57795000D03*
X173620000Y-55255000D03*
X176160000Y-57795000D03*
X176160000Y-55255000D03*
X178700000Y-57795000D03*
X178700000Y-55255000D03*
X181240000Y-57795000D03*
X181240000Y-55255000D03*
X183780000Y-57795000D03*
X183780000Y-55255000D03*
X186320000Y-57795000D03*
X186320000Y-55255000D03*
X188860000Y-57795000D03*
X188860000Y-55255000D03*
X191400000Y-55255000D03*
X191400000Y-57795000D03*
X193940000Y-55255000D03*
X193940000Y-57795000D03*
X196480000Y-57795000D03*
X196480000Y-55255000D03*
X199020000Y-57795000D03*
X199020000Y-55255000D03*
%TD*%
D20*
%TO.C,HOLE1*%
X201930000Y-67310000D03*
%TD*%
%TO.C,HOLE2*%
X201930000Y-123825000D03*
%TD*%
D15*
%TO.C,C11*%
X193040000Y-119380000D03*
D14*
X193040000Y-114300000D03*
%TD*%
D15*
%TO.C,C12*%
X119380000Y-62865000D03*
D14*
X124460000Y-62865000D03*
%TD*%
D15*
%TO.C,U5*%
X160020000Y-119380000D03*
D14*
X162560000Y-119380000D03*
X165100000Y-119380000D03*
X167640000Y-119380000D03*
X170180000Y-119380000D03*
X172720000Y-119380000D03*
X175260000Y-119380000D03*
X177800000Y-119380000D03*
X180340000Y-119380000D03*
X182880000Y-119380000D03*
X182880000Y-111760000D03*
X180340000Y-111760000D03*
X177800000Y-111760000D03*
X175260000Y-111760000D03*
X172720000Y-111760000D03*
X170180000Y-111760000D03*
X167640000Y-111760000D03*
X165100000Y-111760000D03*
X162560000Y-111760000D03*
X160020000Y-111760000D03*
%TD*%
D15*
%TO.C,U7*%
X109220000Y-119380000D03*
D14*
X111760000Y-119380000D03*
X114300000Y-119380000D03*
X116840000Y-119380000D03*
X119380000Y-119380000D03*
X121920000Y-119380000D03*
X124460000Y-119380000D03*
X127000000Y-119380000D03*
X127000000Y-111760000D03*
X124460000Y-111760000D03*
X121920000Y-111760000D03*
X119380000Y-111760000D03*
X116840000Y-111760000D03*
X114300000Y-111760000D03*
X111760000Y-111760000D03*
X109220000Y-111760000D03*
%TD*%
D15*
%TO.C,U6*%
X134620000Y-119380000D03*
D14*
X137160000Y-119380000D03*
X139700000Y-119380000D03*
X142240000Y-119380000D03*
X144780000Y-119380000D03*
X147320000Y-119380000D03*
X149860000Y-119380000D03*
X152400000Y-119380000D03*
X152400000Y-111760000D03*
X149860000Y-111760000D03*
X147320000Y-111760000D03*
X144780000Y-111760000D03*
X142240000Y-111760000D03*
X139700000Y-111760000D03*
X137160000Y-111760000D03*
X134620000Y-111760000D03*
%TD*%
D15*
%TO.C,SW2*%
X160020000Y-106680000D03*
D14*
X162560000Y-106680000D03*
X165100000Y-106680000D03*
X167640000Y-106680000D03*
X170180000Y-106680000D03*
X172720000Y-106680000D03*
X175260000Y-106680000D03*
X177800000Y-106680000D03*
X177800000Y-99060000D03*
X175260000Y-99060000D03*
X172720000Y-99060000D03*
X170180000Y-99060000D03*
X167640000Y-99060000D03*
X165100000Y-99060000D03*
X162560000Y-99060000D03*
X160020000Y-99060000D03*
%TD*%
D21*
%TO.C,P2*%
X197866000Y-97889060D03*
X197866000Y-72900540D03*
D19*
X196443600Y-90881200D03*
D17*
X196443600Y-88138000D03*
X196443600Y-85394800D03*
X196443600Y-82651600D03*
X196443600Y-79908400D03*
X199288400Y-81280000D03*
X199288400Y-84023200D03*
X199288400Y-86791800D03*
X199288400Y-89509600D03*
%TD*%
D14*
%TO.C,C1*%
X105410000Y-100330000D03*
X105410000Y-105410000D03*
%TD*%
%TO.C,C7*%
X105410000Y-113030000D03*
X105410000Y-118110000D03*
%TD*%
%TO.C,C6*%
X130810000Y-113030000D03*
X130810000Y-118110000D03*
%TD*%
%TO.C,C5*%
X157470000Y-113020000D03*
X157470000Y-118100000D03*
%TD*%
%TO.C,C4*%
X137170000Y-83310000D03*
X137170000Y-88390000D03*
%TD*%
%TO.C,C16*%
X142240000Y-70485000D03*
X142240000Y-65405000D03*
%TD*%
%TO.C,C15*%
X147320000Y-70485000D03*
X147320000Y-65405000D03*
%TD*%
D15*
%TO.C,U4*%
X142240000Y-93980000D03*
D14*
X144780000Y-93980000D03*
X147320000Y-93980000D03*
X149860000Y-93980000D03*
X152400000Y-93980000D03*
X154940000Y-93980000D03*
X157480000Y-93980000D03*
X160020000Y-93980000D03*
X162560000Y-93980000D03*
X165100000Y-93980000D03*
X167640000Y-93980000D03*
X170180000Y-93980000D03*
X172720000Y-93980000D03*
X175260000Y-93980000D03*
X175260000Y-78740000D03*
X172720000Y-78740000D03*
X170180000Y-78740000D03*
X167640000Y-78740000D03*
X165100000Y-78740000D03*
X162560000Y-78740000D03*
X160020000Y-78740000D03*
X157480000Y-78740000D03*
X154940000Y-78740000D03*
X152400000Y-78740000D03*
X149860000Y-78740000D03*
X147320000Y-78740000D03*
X144780000Y-78740000D03*
X142240000Y-78740000D03*
%TD*%
%TO.C,C17*%
X137160000Y-65405000D03*
X137160000Y-70485000D03*
%TD*%
D15*
%TO.C,U1*%
X106680000Y-81280000D03*
D14*
X109220000Y-81280000D03*
X106680000Y-83820000D03*
X109220000Y-83820000D03*
X106680000Y-86360000D03*
X109220000Y-86360000D03*
X106680000Y-88900000D03*
X109220000Y-88900000D03*
X106680000Y-91440000D03*
X109220000Y-93980000D03*
X109220000Y-91440000D03*
X111760000Y-93980000D03*
X111760000Y-91440000D03*
X114300000Y-93980000D03*
X114300000Y-91440000D03*
X116840000Y-93980000D03*
X116840000Y-91440000D03*
X119380000Y-93980000D03*
X119380000Y-91440000D03*
X121920000Y-93980000D03*
X121920000Y-91440000D03*
X124460000Y-93980000D03*
X124460000Y-91440000D03*
X127000000Y-93980000D03*
X127000000Y-91440000D03*
X129540000Y-93980000D03*
X132080000Y-91440000D03*
X129540000Y-91440000D03*
X132080000Y-88900000D03*
X129540000Y-88900000D03*
X132080000Y-86360000D03*
X129540000Y-86360000D03*
X132080000Y-83820000D03*
X129540000Y-83820000D03*
X132080000Y-81280000D03*
X129540000Y-81280000D03*
X132080000Y-78740000D03*
X129540000Y-78740000D03*
X132080000Y-76200000D03*
X129540000Y-76200000D03*
X132080000Y-73660000D03*
X129540000Y-73660000D03*
X132080000Y-71120000D03*
X129540000Y-68580000D03*
X129540000Y-71120000D03*
X127000000Y-68580000D03*
X127000000Y-71120000D03*
X124460000Y-68580000D03*
X124460000Y-71120000D03*
X121920000Y-68580000D03*
X121920000Y-71120000D03*
X119380000Y-68580000D03*
X119380000Y-71120000D03*
X116840000Y-68580000D03*
X116840000Y-71120000D03*
X114300000Y-68580000D03*
X114300000Y-71120000D03*
X111760000Y-68580000D03*
X111760000Y-71120000D03*
X109220000Y-68580000D03*
X106680000Y-71120000D03*
X109220000Y-71120000D03*
X106680000Y-73660000D03*
X109220000Y-73660000D03*
X106680000Y-76200000D03*
X109220000Y-76200000D03*
X106680000Y-78740000D03*
X109220000Y-78740000D03*
%TD*%
D18*
%TO.C,JP1*%
X106680000Y-62865000D03*
D17*
X109220000Y-62865000D03*
%TD*%
D19*
%TO.C,P1*%
X106680000Y-57785000D03*
D17*
X106680000Y-55245000D03*
X109220000Y-57785000D03*
X109220000Y-55245000D03*
X111760000Y-57785000D03*
X111760000Y-55245000D03*
X114300000Y-57785000D03*
X114300000Y-55245000D03*
X116840000Y-57785000D03*
X116840000Y-55245000D03*
X119380000Y-57785000D03*
X119380000Y-55245000D03*
X121920000Y-57785000D03*
X121920000Y-55245000D03*
X124460000Y-57785000D03*
X124460000Y-55245000D03*
X127000000Y-57785000D03*
X127000000Y-55245000D03*
X129540000Y-57785000D03*
X129540000Y-55245000D03*
X132080000Y-57785000D03*
X132080000Y-55245000D03*
X134620000Y-57785000D03*
X134620000Y-55245000D03*
X137160000Y-57785000D03*
X137160000Y-55245000D03*
X139700000Y-55245000D03*
X139700000Y-57785000D03*
X142240000Y-55245000D03*
X142240000Y-57785000D03*
X144780000Y-57785000D03*
X144780000Y-55245000D03*
X147320000Y-57785000D03*
X147320000Y-55245000D03*
%TD*%
D15*
%TO.C,RR1*%
X157480000Y-109220000D03*
D14*
X160020000Y-109220000D03*
X162560000Y-109220000D03*
X165100000Y-109220000D03*
X167640000Y-109220000D03*
X170180000Y-109220000D03*
X172720000Y-109220000D03*
X175260000Y-109220000D03*
X177800000Y-109220000D03*
X180340000Y-109220000D03*
%TD*%
%TO.C,RR2*%
X144780000Y-62865000D03*
X142240000Y-62865000D03*
X139700000Y-62865000D03*
X137160000Y-62865000D03*
X134620000Y-62865000D03*
D15*
X132080000Y-62865000D03*
%TD*%
D14*
%TO.C,X1*%
X147220940Y-74295000D03*
X142339060Y-74295000D03*
%TD*%
M02*
